<?xml version="1.0" encoding="UTF-8" standalone="no"?>
<!-- Generator: Adobe Illustrator 19.0.0, SVG Export Plug-In . SVG Version: 6.00 Build 0)  -->

<svg
   xmlns:dc="http://purl.org/dc/elements/1.1/"
   xmlns:cc="http://creativecommons.org/ns#"
   xmlns:rdf="http://www.w3.org/1999/02/22-rdf-syntax-ns#"
   xmlns:svg="http://www.w3.org/2000/svg"
   xmlns="http://www.w3.org/2000/svg"
   xmlns:sodipodi="http://sodipodi.sourceforge.net/DTD/sodipodi-0.dtd"
   xmlns:inkscape="http://www.inkscape.org/namespaces/inkscape"
   version="1.1"
   id="Layer_1"
   x="0px"
   y="0px"
   viewBox="0 0 326.2 187.3"
   style="enable-background:new 0 0 326.2 187.3;"
   xml:space="preserve"
   inkscape:version="0.91 r13725"
   sodipodi:docname="cdpstudiologo.svg"><metadata
     id="metadata19"><rdf:RDF><cc:Work
         rdf:about=""><dc:format>image/svg+xml</dc:format><dc:type
           rdf:resource="http://purl.org/dc/dcmitype/StillImage" /></cc:Work></rdf:RDF></metadata><defs
     id="defs17" /><sodipodi:namedview
     pagecolor="#ffffff"
     bordercolor="#666666"
     borderopacity="1"
     objecttolerance="10"
     gridtolerance="10"
     guidetolerance="10"
     inkscape:pageopacity="0"
     inkscape:pageshadow="2"
     inkscape:window-width="1855"
     inkscape:window-height="1176"
     id="namedview15"
     showgrid="false"
     inkscape:zoom="0.22838748"
     inkscape:cx="-856.71779"
     inkscape:cy="-468.19291"
     inkscape:window-x="1985"
     inkscape:window-y="24"
     inkscape:window-maximized="1"
     inkscape:current-layer="g5" /><style
     type="text/css"
     id="style3">
	.st0{fill-rule:evenodd;clip-rule:evenodd;fill:#0F9DD1;}
	.st1{fill-rule:evenodd;clip-rule:evenodd;fill:#333333;}
	.st2{fill:#333333;}
</style><g
     id="g5"><path
       class="st0"
       d="M68.5,136.9c56.4,0,87.7-68.2,133.6-103.7c-3.1-3.2-6.5-6-10.1-8.5c-45,35.5-73.8,97.1-123.5,100   c-27.6,1.6-55.5-25.2-56.2-56.2c-0.6-31,25.2-56.2,56.2-56.2c20.7,0,38.8,11.2,48.6,27.9h13.8C120.1,16.5,96.2,0,68.5,0   C30.7,0,0,30.7,0,68.5C0,106.3,30.7,136.9,68.5,136.9L68.5,136.9z M213.6,120.7L213.6,120.7c12.3,10.3,28.1,16.2,44.1,16.2   c37.8,0,68.5-30.7,68.5-68.5c0-37.8-30.7-68.5-68.5-68.5c-18.3,0-34,4.9-48.1,12.8c3.4,2.8,6.6,6,9.4,9.4   c11.7-6.2,24.4-9.9,38.7-9.9c31,0,56.2,25.2,56.2,56.2c0,31-25.2,56.2-56.2,56.2c-13.9,0-25.4-4.7-36.1-13.1   C219.2,114.8,216.5,117.9,213.6,120.7L213.6,120.7z"
       id="path7"
       inkscape:export-filename="/home/jto/Pictures/s4rk_eest.png"
       inkscape:export-xdpi="28.485777"
       inkscape:export-ydpi="28.485777" /><path
       class="st1"
       d="M163.4,0c37.8,0,68.5,30.7,68.5,68.5c0,37.8-30.7,68.5-68.5,68.5c-14.7,0-32.5-5.1-43.3-15.7l0.2-0.2   c3.3-2.3,6.4-5,9.2-7.8c8.6,7.7,22.6,11.4,33.8,11.4c31,0,56.2-25.2,56.2-56.2c0-31-25.2-56.2-56.2-56.2   c-14.4,0-25.8,5.4-37.1,13.7c-2.4-3.2-5-6.3-7.9-9.1c1-0.8,2-1.7,3-2.5C133.2,5,148.3,0,163.4,0L163.4,0z"
       id="path9"
       inkscape:export-filename="/home/jto/Pictures/s4rk_eest.png"
       inkscape:export-xdpi="28.485777"
       inkscape:export-ydpi="28.485777" /><path
       class="st2"
       d="M24.5,187.1c-8.8,0-13.1-2.7-13.1-8.2v-15.6c0-5.5,4.4-8.2,13.1-8.2h21.8c0.7,0,1.2,0.2,1.4,0.6   c0.2,0.4,0.3,1,0.3,1.8c0,0.8-0.1,1.4-0.3,1.8c-0.2,0.4-0.7,0.6-1.4,0.6H24.7c-2.6,0-4.5,0.3-5.7,1c-1.2,0.7-1.8,1.5-1.8,2.5v15.6   c0,0.9,0.6,1.8,1.8,2.4c1.2,0.7,3.1,1,5.7,1h21.6c0.7,0,1.2,0.2,1.4,0.6c0.2,0.4,0.3,1,0.3,1.8c0,0.8-0.1,1.4-0.3,1.8   c-0.2,0.4-0.7,0.6-1.4,0.6H24.5L24.5,187.1z M91.9,178.9c0,5.5-4.4,8.2-13.1,8.2H53.6c-1.4,0-2-0.7-2-2.1v-27.9c0-1.4,0.7-2,2-2   h25.2c8.8,0,13.1,2.7,13.1,8.2V178.9L91.9,178.9z M57.5,182.3h21.1c2.6,0,4.5-0.3,5.7-1c1.2-0.7,1.8-1.5,1.8-2.4v-15.6   c0-1-0.6-1.8-1.8-2.5c-1.2-0.7-3.1-1-5.7-1H57.5V182.3L57.5,182.3z M95.7,157.1c0-1.4,0.7-2,2.1-2H123c2,0,3.8,0.2,5.4,0.5   c1.6,0.3,3,0.8,4.1,1.4c1.1,0.6,2,1.4,2.6,2.3c0.6,0.9,0.9,1.9,0.9,3v6.4c0,1.1-0.3,2.1-0.9,3c-0.6,0.9-1.5,1.6-2.6,2.3   c-1.1,0.6-2.5,1.1-4.1,1.4c-1.6,0.3-3.4,0.5-5.4,0.5h-21.4v9.4c0,0.9-0.3,1.4-0.8,1.7c-0.5,0.3-1.2,0.4-2.2,0.4   c-0.9,0-1.7-0.1-2.2-0.4c-0.5-0.3-0.8-0.8-0.8-1.7V157.1L95.7,157.1z M101.6,159.8V171h20.8c1.5,0,2.8-0.1,3.8-0.2   c1-0.1,1.8-0.3,2.4-0.6c0.6-0.3,1-0.5,1.2-0.9c0.2-0.3,0.4-0.7,0.4-1.1v-5.5c0-0.4-0.1-0.8-0.4-1.1c-0.2-0.4-0.7-0.7-1.2-0.9   c-0.6-0.3-1.4-0.4-2.4-0.6c-1-0.1-2.2-0.2-3.8-0.2H101.6L101.6,159.8z"
       id="path11"
       inkscape:export-filename="/home/jto/Pictures/s4rk_eest.png"
       inkscape:export-xdpi="28.485777"
       inkscape:export-ydpi="28.485777" /><path
       class="st2"
       d="M153.8,173.2c-8.3,0-12.4-2.6-12.4-7.8v-1.6c0-5.2,4.1-7.8,12.4-7.8h4.2c0.7,0,1.1,0.2,1.3,0.6   c0.2,0.4,0.3,0.9,0.3,1.7c0,0.8-0.1,1.3-0.3,1.7c-0.2,0.4-0.7,0.6-1.3,0.6h-4.3c-2.5,0-4.2,0.3-5.2,0.9c-1,0.6-1.5,1.4-1.5,2.3v1.6   c0,0.9,0.5,1.7,1.5,2.3c1,0.6,2.8,1,5.2,1h9.9c8.3,0,12.4,2.6,12.4,7.8v2.1c0,5.2-4.1,7.8-12.4,7.8H143c-0.7,0-1.1-0.2-1.3-0.6   c-0.2-0.4-0.3-0.9-0.3-1.7s0.1-1.3,0.3-1.7c0.2-0.4,0.7-0.6,1.3-0.6h20.7c2.5,0,4.2-0.3,5.2-0.9c1-0.6,1.5-1.4,1.5-2.3v-2.1   c0-0.9-0.5-1.7-1.5-2.3c-1-0.6-2.8-1-5.2-1H153.8L153.8,173.2z M181.6,162.7v-4.9c0-0.8,0.2-1.3,0.7-1.6c0.4-0.3,1.1-0.4,2-0.4   c0.9,0,1.6,0.1,2,0.4c0.4,0.3,0.7,0.8,0.7,1.6v4.9h8.9c0.6,0,1.1,0.2,1.2,0.5c0.2,0.4,0.3,0.9,0.3,1.6c0,0.7-0.1,1.2-0.3,1.6   c-0.2,0.3-0.6,0.5-1.2,0.5H187v17.6c0,0.8-0.2,1.3-0.7,1.6c-0.4,0.3-1.1,0.4-2,0.4c-0.9,0-1.6-0.1-2-0.4c-0.4-0.3-0.7-0.8-0.7-1.6   v-17.6h-2.4c-0.6,0-1.1-0.2-1.2-0.5c-0.2-0.3-0.3-0.9-0.3-1.6c0-0.7,0.1-1.2,0.3-1.6c0.2-0.4,0.6-0.5,1.2-0.5H181.6L181.6,162.7z    M230.9,162.5c0.9,0,1.6,0.1,2,0.4c0.4,0.3,0.7,0.8,0.7,1.6V179c0,4.9-4,7.3-11.9,7.3h-10c-7.9,0-11.9-2.4-11.9-7.3v-14.6   c0-0.8,0.2-1.3,0.7-1.6c0.4-0.3,1.1-0.4,2-0.4c0.9,0,1.6,0.1,2,0.4c0.4,0.3,0.7,0.8,0.7,1.6V179c0,0.9,0.5,1.6,1.6,2.2   c1.1,0.6,2.8,0.9,5.1,0.9h9.7c2.4,0,4.1-0.3,5.1-0.9c1.1-0.6,1.6-1.3,1.6-2.2v-14.6c0-0.8,0.2-1.3,0.7-1.6   C229.3,162.6,230,162.5,230.9,162.5L230.9,162.5z M265.5,157.8c0-0.8,0.2-1.3,0.7-1.6c0.4-0.3,1.1-0.4,2-0.4s1.6,0.1,2,0.4   c0.4,0.3,0.7,0.8,0.7,1.6V179c0,4.9-4,7.3-11.9,7.3h-10.1c-7.9,0-11.9-2.4-11.9-7.3V170c0-4.9,4-7.3,11.9-7.3h16.6V157.8   L265.5,157.8z M249,166.9c-2.4,0-4.1,0.3-5.1,0.9c-1.1,0.6-1.6,1.3-1.6,2.2v9.1c0,0.8,0.5,1.6,1.6,2.2c1.1,0.6,2.8,0.9,5.1,0.9h9.8   c2.4,0,4.1-0.3,5.1-0.9c1.1-0.6,1.6-1.3,1.6-2.2v-12.1H249L249,166.9z M279.9,184.5c0,0.8-0.2,1.3-0.7,1.6c-0.4,0.3-1.1,0.4-2,0.4   c-0.9,0-1.6-0.1-2-0.4c-0.4-0.3-0.7-0.8-0.7-1.6v-19.7c0-0.8,0.2-1.3,0.7-1.6c0.4-0.3,1.1-0.4,2-0.4c0.9,0,1.6,0.1,2,0.4   c0.4,0.3,0.7,0.8,0.7,1.6V184.5L279.9,184.5z M273.9,158.4c0-0.9,0.3-1.5,0.8-2c0.5-0.4,1.4-0.6,2.5-0.6c1.2,0,2,0.2,2.5,0.6   c0.5,0.4,0.8,1.1,0.8,2c0,0.9-0.3,1.5-0.8,2c-0.5,0.4-1.4,0.6-2.5,0.6c-1.2,0-2-0.2-2.5-0.6C274.2,160,273.9,159.3,273.9,158.4   L273.9,158.4z M283.5,170c0-4.9,4-7.3,11.9-7.3h9.2c7.9,0,11.9,2.4,11.9,7.3v9.1c0,4.9-4,7.3-11.9,7.3h-9.2   c-7.9,0-11.9-2.4-11.9-7.3V170L283.5,170z M311.1,170c0-0.9-0.5-1.6-1.6-2.2c-1.1-0.6-2.8-0.9-5.1-0.9h-8.8c-2.4,0-4.1,0.3-5.1,0.9   c-1.1,0.6-1.6,1.3-1.6,2.2v9.1c0,0.8,0.5,1.6,1.6,2.2c1.1,0.6,2.8,0.9,5.1,0.9h8.8c2.4,0,4.1-0.3,5.1-0.9c1.1-0.6,1.6-1.3,1.6-2.2   V170L311.1,170z"
       id="path13"
       inkscape:export-filename="/home/jto/Pictures/s4rk_eest.png"
       inkscape:export-xdpi="28.485777"
       inkscape:export-ydpi="28.485777" /></g></svg>